<mxfile host="app.diagrams.net" modified="2022-04-18T03:11:33.721Z" agent="5.0 (Macintosh; Intel Mac OS X 10_15_7) AppleWebKit/537.36 (KHTML, like Gecko) Chrome/100.0.4896.127 Safari/537.36" etag="P_dlXWUj1Qa_TUOX4Rsq" version="16.6.6" type="github">
  <diagram id="-gEmCoKJ6yQnerPNI0j3" name="Page-1">
    <mxGraphModel dx="2066" dy="1129" grid="1" gridSize="10" guides="1" tooltips="1" connect="1" arrows="1" fold="1" page="1" pageScale="1" pageWidth="827" pageHeight="1169" math="0" shadow="0">
      <root>
        <mxCell id="0" />
        <mxCell id="1" parent="0" />
        <mxCell id="UsibwDD9n6LfJcg75nwL-1" value="&lt;font face=&quot;Times New Roman&quot; style=&quot;font-size: 20px&quot;&gt;Paper ID&lt;br&gt;2209&lt;/font&gt;" style="whiteSpace=wrap;html=1;aspect=fixed;" vertex="1" parent="1">
          <mxGeometry x="580" y="320" width="80" height="80" as="geometry" />
        </mxCell>
      </root>
    </mxGraphModel>
  </diagram>
</mxfile>
